<?xml version="1.0" encoding="utf-8"?>
<!-- Generator: Adobe Illustrator 23.0.6, SVG Export Plug-In . SVG Version: 6.00 Build 0)  -->
<svg version="1.1" id="Layer_1" xmlns="http://www.w3.org/2000/svg" xmlns:xlink="http://www.w3.org/1999/xlink" x="0px" y="0px"
	 width="300px" height="600px" viewBox="0 0 300 600" enable-background="new 0 0 300 600" xml:space="preserve">
<path d="M161.24,25.82h11.02v1.8c-2.12-0.04-4.77-0.39-6.94-0.17c0,0-0.01,4.98-0.01,5.32c1.78,0.11,3.87,0.13,5.55-0.09v1.91
	c-1.64-0.15-3.79-0.18-5.55-0.09v5.78c2.17,0.21,4.82-0.12,6.94-0.18v1.8h-11.02V25.82z M159.44,41.09
	c0.02,0.03,0.03,0.06,0.05,0.09l0.4,0.75h-4.38l-0.49-1.08c-0.25-0.58-1.83-4.27-2.61-5.57h-2.34v6.66l-4.11,0V25.82h8.17
	c2.18,0,4.68,1.35,4.75,4.09c0.03,2.23-0.96,3.52-2.45,4.23c-0.28,0.13-0.26,0.1-0.36,0.17c0.94,2.17,1.8,3.84,2.86,5.84
	L159.44,41.09 M154.38,32.44c0.7-0.95,0.64-2.73,0.14-3.67c-0.96-1.69-4.47-1.16-4.47-1.16v5.9
	C151.42,33.51,153.41,33.6,154.38,32.44 M140.04,25.82c2.15,0,3.61,1.01,4.28,2.98c0.51,1.73,0.44,3.97-0.79,5.37
	c-1.65,2.18-7.47,1.86-7.47,1.86l0,1.1v4.8l-4.08,0V25.82H140.04 M140.51,33.08c0.82-1.1,0.69-3.32,0.14-4.3
	c-0.96-1.65-4.59-1.14-4.59-1.14l-0.01,6.46C137.44,34.19,139.55,34.2,140.51,33.08 M91.94,26.79c-1.21-1.48-3.31-3.11-4.77-3.65
	c-1.96-0.78-3.95-0.9-5.49-0.57v-0.16c4.49-1.57,9.86-0.29,12.79,2.57c0.45,0.38,2.05,2.11,2.67,2.85c1.41,1.65,3.28,4.26,4.88,6.3
	v-8.33h2.28v16.51c-2.55-2.08-5.12-6.21-7.05-8.69C97.25,33.61,93.5,28.58,91.94,26.79 M105.81,44.55c1.96,0.78,3.95,0.9,5.49,0.57
	v0.16c-4.49,1.57-9.86,0.29-12.79-2.57c-0.45-0.38-2.05-2.11-2.67-2.85c-1.41-1.65-3.28-4.26-4.88-6.3v8.33h-2.28V25.38
	c2.55,2.08,5.13,6.21,7.05,8.69c0,0,3.74,5.04,5.31,6.82C102.24,42.38,104.34,44.01,105.81,44.55 M117.61,27.62
	c-2.11-0.04-4.77-0.39-6.94-0.17v5.32c1.78,0.11,3.87,0.13,5.54-0.09v1.91c-1.64-0.15-3.78-0.18-5.54-0.09v5.78
	c2.17,0.21,4.83-0.12,6.94-0.18l0.01,1.8h-11.03V25.82h11.03L117.61,27.62 M129.01,34.1c1.22,1.03,1.61,2.24,1.29,4.09
	c-0.31,1.87-2.24,3.39-3.96,3.77c-2.51,0.54-5.34,0.28-7.58-0.72l0-1.99c2.07,0.92,5.27,2.08,7.27,0.23
	c0.53-0.53,0.87-1.29,0.59-2.08c-0.46-1.44-4.15-2.3-6.4-4.09c-2.23-1.46-2.03-3.97-1.25-5.35c2.11-3.36,7.45-2.43,10.8-1.46v2.02
	c-0.79-0.35-1.23-0.61-2.06-0.85c-0.65-0.15-3.46-0.86-4.8,0.64c-0.57,0.6-0.74,1.72,0.38,2.58
	C124.89,31.98,127.15,32.49,129.01,34.1 M206.5,25.58c1.07-0.01,7.97,0.11,7.98,8.24c0.02,8.07-6.8,8.39-7.98,8.38
	c-1.18,0.01-8-0.31-8-8.38C198.53,25.68,205.43,25.57,206.5,25.58 M206.53,39.95c0.46,0,3.76,0.14,3.74-6.45
	c-0.03-6.11-3.23-5.94-3.76-5.94c-0.53,0-3.74-0.17-3.76,5.94c-0.02,6.59,3.28,6.45,3.73,6.45H206.53 M216.95,40.08
	c0.12,0.01,0.3,0.11,0.3,0.43c0,0.24,0.03,0.45,0.11,0.53h-0.38c-0.05-0.08-0.05-0.19-0.05-0.29c0-0.38-0.08-0.54-0.41-0.54h-0.52
	v0.83h-0.36v-2.02h0.97c0.44,0,0.66,0.21,0.66,0.54C217.29,39.95,217.02,40.05,216.95,40.08L216.95,40.08 M216.59,39.94
	c0.23,0,0.35-0.12,0.35-0.32c0-0.25-0.17-0.31-0.35-0.31h-0.57v0.63H216.59 M183.71,34.1c1.22,1.03,1.61,2.24,1.3,4.09
	c-0.31,1.87-2.24,3.39-3.96,3.77c-2.51,0.54-5.35,0.28-7.58-0.72l0.01-1.99c2.07,0.92,5.27,2.08,7.27,0.23
	c0.53-0.53,0.87-1.29,0.59-2.08c-0.46-1.44-4.15-2.3-6.4-4.09c-2.23-1.46-2.03-3.97-1.26-5.35c2.11-3.36,7.46-2.43,10.8-1.46v2.02
	c-0.79-0.35-1.23-0.61-2.05-0.85c-0.65-0.15-3.45-0.86-4.8,0.64c-0.57,0.6-0.74,1.72,0.38,2.58
	C179.59,31.98,181.85,32.49,183.71,34.1 M216.4,38.12c1.06,0,1.92,0.86,1.92,1.91c0,1.06-0.86,1.92-1.92,1.92
	c-1.06,0-1.92-0.86-1.92-1.92C214.48,38.98,215.34,38.12,216.4,38.12 M216.4,41.76c0.95,0,1.72-0.78,1.72-1.73
	c0-0.95-0.77-1.72-1.72-1.72c-0.95,0-1.73,0.77-1.73,1.72C214.67,40.98,215.45,41.76,216.4,41.76 M196.22,34.1
	c1.22,1.03,1.61,2.24,1.31,4.09c-0.32,1.87-2.24,3.39-3.98,3.77c-2.52,0.54-5.35,0.28-7.59-0.72l0.01-1.99
	c2.06,0.92,5.27,2.08,7.25,0.23c0.55-0.53,0.88-1.29,0.59-2.08c-0.45-1.44-4.14-2.3-6.39-4.09c-2.24-1.46-2.04-3.97-1.25-5.35
	c2.11-3.36,7.45-2.43,10.8-1.46v2.02c-0.79-0.35-1.23-0.61-2.06-0.85c-0.65-0.15-3.45-0.86-4.8,0.64c-0.56,0.6-0.73,1.72,0.39,2.58
	C192.1,31.98,194.36,32.49,196.22,34.1"/>
<g>
	<path d="M183.98,571.65c-1.66,1.25-3.78,2.43-5.9,2.61c-0.1,0.01-0.21,0.01-0.31,0c-0.26-0.04-0.31-0.15-0.31-0.33
		c0.01-0.51,0.09-0.93,0.18-1.5c0.05-0.32,0.09-0.89,0.46-1.02c0.05-0.02,0.09-0.03,0.14-0.05c0.2-0.07,0.4-0.14,0.59-0.22
		c1.19-0.55,2.49-1.09,3.37-2.1c0.42-0.48,0.54-1.08,0.06-1.58c-1.29-1.36-2.98-0.48-4.14,0.51c-0.48,0.41-0.91,0.87-1.24,1.41
		c-0.25,0.42-0.48,0.84-0.71,1.27c-0.06,0.11-0.13,0.17-0.25,0.19c-0.8,0.15-1.59,0.33-2.38,0.55c-0.04,0.01-0.08,0.01-0.12,0.01
		c-0.01-0.03-0.02-0.05-0.02-0.07c0.03-0.32,0.06-0.64,0.11-0.95c0.03-0.22,0.07-0.44,0.12-0.65c0.15-0.75,0.51-1.94,1.51-1.75
		c0.08,0.02,0.19,0.02,0.24,0.1c-0.02,0.11-0.04,0.22-0.07,0.34c-0.03,0.15,0.07,0.29,0.23,0.27c0.07-0.01,0.15-0.03,0.21-0.06
		c0.15-0.07,0.3-0.14,0.45-0.22c0.16-0.08,0.21-0.27,0.1-0.4c-0.25-0.32-0.61-0.59-1.01-0.67c-0.59-0.11-1.31,0.33-1.82,0.59
		c-0.89,0.45-1.67,1.04-2.47,1.62c-0.44,0.32-0.88,0.65-1.32,0.99c-0.4,0.31-0.79,0.63-1.18,0.95c-0.38,0.31-0.75,0.62-1.12,0.93
		c-0.01,0.01-0.03,0.03-0.04,0.04c-0.07,0.04-0.11,0.03-0.15-0.04c-0.03-0.06,0.13-0.37,0.15-0.44c0.06-0.14,0.12-0.29,0.18-0.43
		c0.12-0.28,0.23-0.55,0.34-0.83c0.56-1.42,1.17-2.81,1.87-4.17c0.65-1.26,1.34-2.69,2.3-3.75c0.16-0.17,0.28-0.37,0.46-0.51
		c0.16-0.13,0.28-0.16,0.33-0.39c0.03-0.13,0.05-0.27,0.02-0.4c-0.01-0.05-0.02-0.11-0.02-0.17c0.01-0.32-0.13-0.57-0.36-0.78
		c-0.13-0.12-0.26-0.23-0.39-0.34c-0.05-0.05-0.11-0.06-0.17-0.02c-0.86,0.57-1.38,1.33-1.93,2.17c-0.42,0.64-0.81,1.29-1.19,1.95
		c-0.45,0.8-0.87,1.61-1.26,2.44c-0.19,0.41-0.38,0.83-0.56,1.25c-0.19,0.44-0.44,0.73-0.76,1.09c-0.15,0.18-0.31,0.35-0.46,0.53
		c-0.14,0.16-0.28,0.33-0.42,0.49c-0.3,0.33-0.61,0.65-0.91,0.97c-0.8,0.84-1.65,1.69-2.52,2.47c-0.89,0.8-1.78,1.57-2.93,1.98
		c-0.08,0.03-0.16,0.05-0.25,0.07c-0.09,0.02-0.16-0.03-0.17-0.12c0-0.04,0.01-0.07,0.02-0.11c0.24-0.77,0.51-1.49,0.84-2.22
		c0.18-0.41,0.28-0.73,0.7-0.92c0.45-0.21,1.76-0.92,1.34-0.67c-0.16,0.1,1.61-0.96,2.51-1.61c0.82-0.6,1.46-1.49,0.56-2.37
		c-0.17-0.17-0.36-0.26-0.53-0.32c-0.25-0.09-0.52-0.11-0.79-0.11c-1.45,0.02-2.55,0.89-3.59,1.81c-1.03,0.91-1.93,1.98-2.63,3.17
		c-0.47,0.8-0.7,1.73-0.37,2.63c0.25,0.7,0.85,1.29,1.57,1.5c0.84,0.23,1.83-0.31,2.5-0.78c1.15-0.8,2.24-1.75,3.21-2.76
		c0.27-0.28,0.56-0.54,0.83-0.82c0.29-0.29,0.56-0.59,0.84-0.88c0.06-0.07,0.13-0.13,0.2-0.19c-0.01,0.1-0.04,0.18-0.07,0.26
		c-0.12,0.3-0.25,0.59-0.36,0.89c-0.1,0.27-0.18,0.55-0.28,0.82c-0.05,0.12-0.08,0.25-0.07,0.38c0.04,0.54,0.36,2.49,1.36,1.8
		c0.89-0.62,1.39-1.59,2.21-2.27c0.17-0.15,0.35-0.29,0.53-0.43c0.33-0.27,0.67-0.54,0.99-0.83c0.19-0.17,0.37-0.34,0.56-0.5
		c0.15-0.13,0.3-0.25,0.46-0.38c0.08-0.07,0.16-0.13,0.24-0.2c0.16-0.14,0.31-0.28,0.48-0.41c0.21-0.17,0.43-0.33,0.65-0.49
		c0.06-0.04,0.13-0.07,0.19-0.1c0,0,0-0.01,0-0.01c0,0.01,0,0.01,0,0.02c0,0.04,0,0.09-0.01,0.13c-0.13,0.7-0.18,1.4-0.21,2.11
		c-0.01,0.12-0.06,0.18-0.16,0.21c-0.2,0.07-0.4,0.14-0.59,0.22c-0.31,0.13-0.62,0.27-0.94,0.39c-0.35,0.13-0.67,0.31-0.99,0.49
		c-0.21,0.12-0.4,0.27-0.59,0.41c-0.13,0.1-0.13,0.17-0.03,0.3c0.68,0.83,2.18,1.14,3.2,1.18c0.18,0.01,0.36-0.03,0.51-0.13
		c0.13-0.1,0.2-0.26,0.25-0.41c0.18-0.59,0.25-1.24,0.22-1.85c0-0.09,0.02-0.16,0.09-0.21c0.15-0.08,0.29-0.17,0.45-0.22
		c0.27-0.1,0.55-0.17,0.83-0.25c0.25-0.07,0.51-0.15,0.76-0.22c0.12-0.03,0.24-0.05,0.37-0.06c-0.07,0.27-0.15,0.51-0.2,0.76
		c-0.35,1.57,0.57,3.15,1.99,3.44c0.76,0.16,1.56,0,2.27-0.32c0.88-0.39,1.71-0.91,2.45-1.54c0.64-0.55,1.37-1.2,1.8-2.08
		c0.01-0.03,0-0.06,0-0.12C184.04,571.61,184,571.62,183.98,571.65z M178.43,570.15c0.03-0.06,0.05-0.12,0.06-0.13
		c0.4-0.79,0.8-1.56,1.43-2.19c0.25-0.25,1.51-1.11,1.52-0.24c0,0.19-0.01,0.37-0.06,0.55c-0.05,0.18-0.13,0.33-0.26,0.46
		c-0.36,0.4-0.77,0.74-1.22,1.04c-0.21,0.15-0.43,0.29-0.64,0.43c-0.08,0.05-0.16,0.08-0.25,0.12c-0.24,0.1-0.48,0.22-0.73,0.28
		C178.28,570.49,178.37,570.29,178.43,570.15z M160.78,570.94c-0.02-0.04-0.01-0.09,0.02-0.13c0.42-0.52,0.85-1.04,1.27-1.56
		c0.37-0.45,0.7-0.97,1.23-1.24c0.17-0.09,0.39-0.13,0.57-0.05c0.26,0.1,0.35,0.41,0.22,0.65c-0.06,0.11-0.14,0.22-0.23,0.31
		c-0.11,0.12-0.24,0.23-0.37,0.33c-0.15,0.12-0.31,0.24-0.47,0.35C162.85,569.73,160.83,571.06,160.78,570.94z M172.39,573.72
		c-0.24,0-1.34-0.34-1.47-0.42c0.01-0.09,0.08-0.12,0.14-0.16c0.34-0.19,0.95-0.5,1.34-0.58
		C172.48,572.74,172.47,573.49,172.39,573.72z"/>
	<path d="M192.81,567.01c-0.09-0.45-0.3-0.87-0.66-1.18c-1.12-0.95-2.73-1.07-4.12-0.8c-0.39,0.08-0.77,0.19-1.15,0.29
		c-0.24,0.06-0.36,0.13-0.58,0.25c-0.16,0.09-0.15,0.15-0.17,0.35c-0.03,0.29-0.15,0.77-0.03,1.04c0.24,0.53,2.34-0.59,2.66-0.71
		c0.78-0.29,1.67-0.5,2.43-0.07c0.1,0.06,0.2,0.13,0.23,0.25c0.05,0.21,0.04,0.43-0.05,0.63c-0.09,0.2-0.21,0.38-0.4,0.49
		c-0.03,0.02-0.06,0.05-0.08,0.07c-0.17,0.14-0.34,0.28-0.53,0.4c-0.29,0.2-0.6,0.39-0.9,0.59c-0.15,0.1-0.31,0.2-0.46,0.3
		c-0.23,0.15-0.46,0.3-0.69,0.47c-0.17,0.13-0.33,0.28-0.5,0.41c-0.21,0.17-0.4,0.37-0.58,0.57c-0.37,0.42-0.64,0.9-0.8,1.44
		c-0.07,0.25-0.11,0.5-0.13,0.76c-0.03,0.24,0.01,0.48,0.07,0.71c0.02,0.08,0.07,0.16,0.11,0.23c0.06,0.09,0.15,0.15,0.26,0.15
		c0.18,0,0.37-0.15,0.43-0.32c0.02-0.06,0-0.11-0.07-0.13c-0.05-0.01-0.09-0.01-0.15-0.02c0-0.03-0.01-0.06,0-0.08
		c0.07-0.1,0.13-0.21,0.22-0.3c0.43-0.42,0.88-0.85,1.39-1.18c0.58-0.37,1.18-0.73,1.77-1.1c0.29-0.18,0.59-0.37,0.87-0.56
		c0.67-0.45,1.25-0.93,1.5-1.72C192.86,567.85,192.89,567.42,192.81,567.01z"/>
	<path d="M157.08,566.7c0.25-0.01,0.55-0.01,0.8-0.04c0.54-0.06,0.09-0.6-0.13-0.74c-0.45-0.27-0.96-0.44-1.47-0.53
		c-1.01-0.19-2.06-0.14-3.06-0.19c-0.11-0.01-0.15-0.01-0.25-0.09c0.01-0.12,0.02-0.13,0.11-0.29c0.38-0.7,0.84-1.47,1.43-2.02
		c0.09-0.09,0.18-0.19,0.24-0.3c0.12-0.22,0.07-0.31-0.17-0.36c-0.04-0.01-0.07-0.01-0.11-0.02c-0.05-0.01-0.11-0.03-0.16-0.05
		c-0.11-0.04-0.22-0.08-0.33-0.11c-0.45-0.12-1.2,1.07-1.38,1.36c-0.37,0.59-0.66,1.24-1.02,1.81c-0.07,0.11-0.17,0.17-0.31,0.18
		c-0.27,0.01-0.54,0.02-0.81,0.04c-0.36,0.02-0.73,0.02-1.09,0.05c-0.35,0.03-0.7,0.08-1.05,0.12c-0.32,0.04-0.63,0.08-0.95,0.12
		c-0.49,0.06-0.98,0.1-1.47,0.17c-0.57,0.08-1.15,0.12-1.72,0.18c-0.24,0.03-0.48,0.06-0.72,0.08c-0.35,0.03-0.69,0.06-1.04,0.06
		c-0.22,0-0.59,0.04-0.71-0.19c-0.03-0.06-0.08-0.12-0.13-0.18c-0.04-0.06-0.09-0.1-0.18-0.08c0,0.04-0.01,0.08-0.01,0.12
		c0.01,0.18,0.03,0.37,0.02,0.55c-0.01,0.29,0.05,0.66,0.2,0.91c0.12,0.2,0.37,0.21,0.58,0.28c0.72,0.22,1.59,0.08,2.32-0.01
		c0.8-0.09,1.59-0.23,2.39-0.32c0.9-0.09,1.8-0.22,2.7-0.33c0.05-0.01,0.87-0.09,0.85-0.04c0,0-0.59,1.5-0.83,2.11
		c-0.23,0.22-0.46,0.44-0.69,0.66c-0.08,0.08-0.16,0.15-0.24,0.23c-0.15,0.17-0.34,0.31-0.48,0.49c-0.1,0.12-0.22,0.21-0.32,0.32
		c-0.08,0.09-0.15,0.18-0.23,0.27c-0.27,0.29-0.55,0.57-0.82,0.86c-0.3,0.3-0.59,0.61-0.89,0.91c-0.12,0.12-0.25,0.24-0.37,0.36
		c-0.05,0.05-0.52,0.34-0.57,0.31c-0.03-0.02-0.09-0.09-0.07-0.16c0.41-1.02,0.81-2.05,1.28-3.05c0.07-0.15,0.57-0.94,0.45-1.07
		c-0.1-0.11-0.19-0.11-0.32-0.16c-0.25-0.08-0.45-0.17-0.7-0.2c-0.02,0-0.04,0-0.05,0.02c-0.12,0.12-0.12,0.11-0.19,0.28
		c-0.02,0.06-0.05,0.12-0.08,0.17c-0.07,0.11-0.13,0.07-0.16,0.06c-0.05-0.02-0.11-0.05-0.16-0.07c-0.75-0.38-1.83-0.06-2.56,0.28
		c-0.6,0.28-1.18,0.61-1.73,0.99c-0.32,0.22-0.65,0.42-0.97,0.65c-0.48,0.34-0.95,0.69-1.42,1.04c-0.44,0.33-0.87,0.66-1.31,1
		c-0.01,0.01-0.03,0.01-0.06,0.01c0-0.04-0.01-0.08,0-0.11c0.46-1.11,1.09-2.16,1.49-3.29c0.05-0.15,0.09-0.31,0.14-0.46
		c0.06-0.19,0.06-0.37-0.01-0.56c-0.39-1.01-2.03,0.36-2.41,0.68c-0.56,0.46-1.08,0.97-1.6,1.48c-0.39,0.38-0.76,0.77-1.14,1.16
		c0.03-0.08,0.06-0.17,0.11-0.25c0.17-0.31,0.24-0.44,0.37-0.66c1.12-1.97,2.08-4.03,3.2-6c0.2-0.36,0.41-0.72,0.62-1.07
		c0.14-0.23,0.28-0.46,0.42-0.7c0.48-0.8,0.9-1.64,1.39-2.44c0.25-0.42,0.52-0.83,0.82-1.21c0.25-0.32,0.65-0.78,0.69-1.24
		c0.01-0.15,0.01-0.15,0.07-0.43c0.01-0.06-0.09-0.4-0.23-0.56c-0.1-0.1-0.21-0.19-0.31-0.28c-0.09-0.08-0.19-0.16-0.29-0.23
		c-0.03-0.02-0.08-0.03-0.13-0.05c-0.04,0.06-0.07,0.1-0.1,0.15c-0.18,0.28-0.36,0.56-0.54,0.84c-0.25,0.38-0.5,0.75-0.75,1.12
		c-0.19,0.29-0.36,0.59-0.55,0.88c-0.19,0.3-0.38,0.59-0.56,0.89c-0.22,0.36-0.43,0.73-0.65,1.1c-0.08,0.14-0.17,0.27-0.25,0.41
		c-0.25,0.43-0.5,0.87-0.75,1.29c-0.36,0.6-0.72,1.2-1.05,1.83c-0.41,0.78-0.8,1.56-1.22,2.32c-0.28,0.51-0.49,0.52-1.06,0.75
		c-0.38,0.16-0.54,0.3-0.93,0.43c-0.26,0.09-0.52,0.16-0.78,0.23c-0.07,0.02-0.15,0.05-0.23,0c0-0.02,0-0.04,0.01-0.06
		c0.05-0.1,0.1-0.2,0.16-0.29c0.33-0.61-0.98-0.26-0.98-0.3c0.02,0.23-0.03,0.44-0.08,0.66c-0.02,0.08-0.05,0.17-0.09,0.24
		c-0.14,0.24-0.27,0.48-0.42,0.72c-0.24,0.38-0.5,0.76-0.75,1.15c-0.18,0.28-0.37,0.57-0.55,0.86c-0.14,0.22-0.27,0.45-0.41,0.68
		c-0.04,0.07-0.09,0.15-0.13,0.22c-0.09,0.14-0.17,0.28-0.27,0.42c-0.05,0.07-0.11,0.13-0.16,0.2c-0.12,0.15-0.23,0.31-0.34,0.46
		c-0.02,0.02-0.05,0.04-0.09,0.08c0.08-0.82,0.28-1.67,0.45-2.48c0.08-0.39,0.18-0.76,0.3-1.14c0.09-0.3,0.12-0.59,0.25-0.87
		c0.09-0.2,0.22-0.34-0.01-0.51c-0.23-0.17-0.49-0.07-0.73-0.09c-0.01,0-0.01,0-0.02,0.01c-0.07,0.03-0.14,0.06-0.22,0.09
		c0,0.02-0.02,0.04-0.01,0.05c0.06,0.16-0.01,0.27-0.11,0.38c-0.34,0.38-0.69,0.75-1.03,1.14c-0.33,0.38-0.65,0.76-0.96,1.15
		c-0.36,0.44-0.7,0.89-1.05,1.34c-0.19,0.24-0.38,0.48-0.61,0.7c-0.09,0.09-0.17,0.19-0.26,0.29c-0.02,0.02-0.04,0.04-0.06,0.06
		c0.16-0.51,0.49-1.01,0.71-1.5c0.25-0.56,0.5-1.13,0.74-1.7c0.2-0.47,0.39-0.95,0.58-1.42c0.15-0.38,0.29-0.85,0.51-1.19
		c0.01-0.02,0.01-0.05,0.01-0.07c-0.02-0.18-0.03-0.37-0.11-0.54c-0.05-0.11-0.1-0.22-0.16-0.33c-0.11-0.19-0.21-0.38-0.34-0.55
		c-0.15-0.22-0.18-0.43-0.46-0.5c-0.05-0.01-0.55-0.01-0.55,0c-0.05,0.14-0.13,0.25-0.24,0.33c-0.37,0.26-0.73,0.52-1.09,0.79
		c-0.3,0.22-0.6,0.43-0.89,0.66c-0.45,0.35-0.9,0.71-1.35,1.06c-0.38,0.3-0.76,0.58-1.14,0.88c-0.55,0.42-1.1,0.83-1.67,1.22
		c-0.29,0.2-0.57,0.41-0.86,0.61c-0.02,0.01-0.03,0.02-0.04,0.03c-0.26,0.19-0.53,0.38-0.79,0.58c-0.15,0.11-0.3,0.22-0.45,0.32
		c-0.07,0.05-0.14,0.09-0.22,0.14c-0.07,0.05-0.14,0.09-0.21,0.14c-0.25,0.17-0.49,0.35-0.74,0.52c-0.18,0.12-0.36,0.23-0.54,0.35
		c-0.29,0.19-0.58,0.38-0.87,0.55c-0.49,0.29-0.99,0.57-1.48,0.87c-0.54,0.32-1.1,0.59-1.66,0.86c-0.28,0.13-0.57,0.23-0.88,0.29
		c-0.13,0.03-0.26,0.02-0.37-0.07c-0.1-0.08-0.22-0.1-0.35-0.09c-0.08,0.01-0.17,0-0.26,0c-0.06,0-0.12-0.01-0.18,0.06
		c0.01,0.21,0.09,0.41,0.28,0.53c0.82,0.53,1.71,0.21,2.51-0.2c1.06-0.54,2.1-1.13,3.1-1.77c1.68-1.07,3.28-2.25,4.84-3.49
		c0.78-0.62,1.55-1.25,2.32-1.89c0.73-0.61,1.43-1.33,2.26-1.79c0.01-0.01,0.03,0,0.07,0.01c-0.02,0.05-0.04,0.1-0.06,0.14
		c-0.12,0.21-0.24,0.42-0.35,0.63c-0.15,0.26-0.3,0.53-0.44,0.79c-0.13,0.23-0.26,0.46-0.38,0.7c-0.13,0.26-0.25,0.52-0.38,0.78
		c-0.31,0.58-0.61,1.17-0.87,1.77c-0.14,0.32-0.28,0.65-0.39,0.98c-0.3,0.86,0.19,1.45,0.69,2.08c0.32,0.4,1.07,1.08,1.48,0.57
		c0.37-0.47,0.83-0.93,1.19-1.42c0.37-0.49,0.72-0.9,1.06-1.4c0.29-0.43,0.45-0.73,0.75-1.15c0.14-0.2,0.3-0.48,0.5-0.72
		c0.23-0.27,0.48-0.58,0.68-0.87c0.02-0.02,0.05-0.04,0.07-0.06c-0.03,0.13-0.05,0.27-0.09,0.4c-0.06,0.22-0.13,0.44-0.2,0.65
		c-0.02,0.05-0.04,0.1-0.05,0.16c-0.13,0.35-0.27,0.7-0.39,1.06c-0.09,0.27-0.17,0.54-0.25,0.81c-0.11,0.37-0.21,0.74-0.25,1.12
		c-0.02,0.15,0,0.31,0.01,0.46c0.02,0.31,0.17,0.6,0.43,0.91c0.26,0.32,0.64,0.61,1.04,0.32c0.32-0.23,0.55-0.66,0.75-0.99
		c0.24-0.39,0.46-0.79,0.67-1.19c0.42-0.79,0.79-1.61,1.22-2.4c0.15-0.27,0.31-0.53,0.46-0.8c0.21-0.37,0.42-0.74,0.63-1.11
		c0.04-0.06,0.08-0.12,0.12-0.17c0.02-0.01,0.03-0.01,0.03-0.01c0.04,0,0.07,0,0.11,0.01c0.41,0.03,0.81-0.01,1.19-0.18
		c0.33-0.15,0.65-0.29,0.98-0.43c0.07-0.03-0.26,0.51-0.41,0.76c-0.23,0.4-0.43,0.91-0.66,1.31c-0.45,0.8-0.76,1.56-1.2,2.36
		c-0.2,0.36-0.39,0.71-0.59,1.07c-0.12,0.22-0.24,0.43-0.34,0.66c-0.25,0.55-0.49,1.1-0.74,1.65c-0.22,0.5,0,1.04,0.31,1.45
		c0.24,0.32,0.31,0.67,0.76,0.53c0.45-0.14,0.49-0.5,0.76-0.85c0.17-0.21,0.32-0.46,0.47-0.69c0.77-1.12,1.46-2.29,2.21-3.42
		c0.71-1.06,1.52-2,2.33-2.97c0.23-0.27,0.47-0.52,0.73-0.75c0.24-0.21,0.45-0.45,0.69-0.66c0.26-0.24,0.54-0.47,0.81-0.7
		c0.02-0.01,0.04-0.02,0.07-0.03c0.01,0.11-0.04,0.18-0.08,0.26c-0.18,0.38-0.37,0.77-0.55,1.15c-0.25,0.53-0.51,1.05-0.76,1.58
		c-0.15,0.31-0.29,0.63-0.34,0.97c-0.05,0.37,0.15,0.83,0.46,1.06c0.3,0.22,0.64,0.05,0.94-0.13c0.1-0.06,0.2-0.12,0.3-0.19
		c0.16-0.11,0.32-0.23,0.48-0.35c0.09-0.07,0.18-0.15,0.26-0.23c0.15-0.13,0.3-0.26,0.44-0.39c0.26-0.24,0.52-0.49,0.78-0.73
		c0.13-0.12,0.25-0.24,0.38-0.35c0.03-0.03,0.06-0.06,0.1-0.08c0.1-0.08,0.19-0.15,0.29-0.23c0.1-0.09,0.19-0.18,0.28-0.26
		c-0.21,0.24-0.4,0.49-0.59,0.74c-0.1,0.13-0.18,0.28-0.27,0.42c-0.2,0.34-0.2,0.87-0.03,1.21c0.41,0.83,1.48,0.07,1.98-0.24
		c0.47-0.29,0.91-0.63,1.32-1.01c0.03-0.03,0.07-0.06,0.11-0.06c0.12,0.01-0.2,0.9-0.23,1.02c-0.06,0.2-0.11,0.4-0.13,0.61
		c-0.09,0.73,0.86,1.85,1.63,1.53c0.58-0.24,1-0.83,1.39-1.29c0.34-0.4,0.68-0.8,1.02-1.21c0.7-0.85,1.43-1.7,2.19-2.51
		c0.02-0.02,0.04-0.05,0.06-0.07c-0.07,0.17-0.14,0.33-0.21,0.5c-0.11,0.26-0.24,0.51-0.35,0.77c-0.07,0.18-0.13,0.37-0.19,0.56
		c-0.36,1.08-0.71,2.16-0.81,3.29c-0.04,0.44-0.09,0.9,0.01,1.34c0.11,0.46,0.42,0.83,0.81,1.1c0.45,0.3,0.8,0.17,1.14-0.21
		c0.06-0.07,0.12-0.16,0.18-0.24c0.02-0.03,0.04-0.06,0.06-0.09c0.04-0.09,0-0.21-0.08-0.26c-0.07-0.05-0.14-0.03-0.23,0.05
		c-0.03,0.03-0.06,0.07-0.08,0.1c-0.08,0.11-0.2,0.19-0.32,0.25c-0.1,0.05-0.14,0.04-0.2-0.05c-0.11-0.15-0.16-0.32-0.17-0.5
		c-0.05-0.74,0.17-1.43,0.36-2.13c0.2-0.73,0.42-1.46,0.66-2.19c0.33-0.98,0.69-1.94,1.08-2.9c0.19-0.45,0.39-0.9,0.59-1.36
		c0.19-0.44,0.37-0.95,0.64-1.35c0.21-0.41,0.94-0.37,1.31-0.37c0.64,0.01,1.27,0.02,1.91,0.04
		C155.9,566.69,156.45,566.72,157.08,566.7z M144.77,569.7c-0.08,0.12-0.19,0.22-0.29,0.33c-0.19,0.2-0.4,0.38-0.61,0.57
		c-0.2,0.18-0.4,0.37-0.6,0.55c-0.11,0.1-0.23,0.2-0.34,0.3c-0.34,0.32-0.71,0.61-1.08,0.88c-0.35,0.25-1.11,0.88-1.58,0.77
		c0.11-0.67,0.83-1.47,1.26-1.97c0.64-0.73,1.57-1.62,2.62-1.62C144.17,569.51,144.85,569.57,144.77,569.7z"/>
	<path d="M187.52,575.93c-0.03,0-0.06,0.06-0.09,0.11c0.02-0.19-0.04-0.38-0.15-0.57c-0.75-1.38-2.43,1.56-0.69,1.48
		c0.46-0.02,0.91-0.45,0.95-0.91C187.54,576,187.55,575.93,187.52,575.93z"/>
</g>
<g>
	<path d="M120.88,87.69c0,4.55-3.38,5.31-6.35,5.31h-2.16V82.64h2.06C117.5,82.64,120.88,83.12,120.88,87.69z M119.68,87.69
		c0-3.59-2.43-4.07-5.25-4.07h-0.9V92h0.86C117.26,92,119.68,91.26,119.68,87.69z"/>
	<path d="M124.01,82.64h1.17v10.37h-1.17V82.64z"/>
	<path d="M128.4,92.54v-1.22c0.61,0.4,1.58,0.8,2.67,0.8c1.3,0,2.16-0.53,2.16-1.79c0-2.58-4.74-1.7-4.74-5.06
		c0-1.73,1.17-2.8,3.12-2.8c1.06,0,1.98,0.32,2.38,0.54v1.2c-0.62-0.4-1.49-0.72-2.32-0.72c-1.17,0-2,0.59-2,1.71
		c0,2.46,4.74,1.54,4.74,5.04c0,2-1.3,2.91-3.31,2.91C129.94,93.17,128.98,92.85,128.4,92.54z"/>
	<path d="M136.83,87.84c0-3.12,1.86-5.36,5.12-5.36c1.39,0,2.5,0.42,2.95,0.75v1.2c-0.82-0.56-1.79-0.88-2.88-0.88
		c-2.48,0-4,1.68-4,4.26c0,2.74,1.71,4.27,4.08,4.27c1.23,0,2.3-0.4,2.96-0.86v1.22c-0.42,0.29-1.58,0.74-3.07,0.74
		C138.68,93.17,136.83,90.96,136.83,87.84z"/>
	<path d="M147.35,87.82c0-3.03,1.87-5.35,5.14-5.35c3.28,0,5.07,2.32,5.07,5.28c0,3.02-1.82,5.41-5.12,5.41
		C149.18,93.17,147.35,90.8,147.35,87.82z M156.38,87.77c0-2.45-1.54-4.23-3.92-4.23c-2.32,0-3.92,1.76-3.92,4.24
		c0,2.43,1.52,4.29,3.94,4.29C154.88,92.08,156.38,90.27,156.38,87.77z"/>
	<path d="M159.12,82.64h1.28l3.57,8.15l3.57-8.15h1.26l-4.75,10.52h-0.16L159.12,82.64z"/>
	<path d="M171.39,82.64h5.99v0.99h-4.82v3.6h3.57v0.98h-3.57V92h5.01v1.01h-6.18V82.64z"/>
	<path d="M187.74,93.01h-1.41l-2.48-3.95h-2.48v3.95h-1.17V82.64h3.25c2.18,0,3.84,0.82,3.84,3.19c0,1.9-1.1,2.79-2.22,3.07
		L187.74,93.01z M186.09,85.84c0-1.73-1.34-2.21-2.83-2.21h-1.89v4.45h1.97C184.76,88.08,186.09,87.65,186.09,85.84z"/>
	<path d="M113.14,109.82c0-3.03,1.87-5.35,5.14-5.35c3.28,0,5.07,2.32,5.07,5.28c0,3.02-1.82,5.41-5.12,5.41
		C114.97,115.17,113.14,112.8,113.14,109.82z M122.17,109.77c0-2.45-1.54-4.23-3.92-4.23c-2.32,0-3.92,1.76-3.92,4.24
		c0,2.43,1.52,4.29,3.94,4.29C120.67,114.08,122.17,112.27,122.17,109.77z"/>
	<path d="M126.33,110.85v-6.21h1.17v5.95c0,2.37,0.77,3.51,2.79,3.51c1.94,0,2.82-1.07,2.82-3.51v-5.95h1.15v6.19
		c0,3.06-1.36,4.34-3.95,4.34C127.53,115.17,126.33,113.71,126.33,110.85z"/>
	<path d="M145.32,115.01h-1.41l-2.48-3.95h-2.48v3.95h-1.17v-10.37h3.25c2.18,0,3.84,0.82,3.84,3.19c0,1.9-1.1,2.79-2.23,3.07
		L145.32,115.01z M143.67,107.84c0-1.73-1.34-2.21-2.83-2.21h-1.89v4.45h1.97C142.34,110.08,143.67,109.65,143.67,107.84z"/>
	<path d="M153.36,107.07v7.94h-1.14v-10.53h0.16l7.19,8.12v-7.96h1.14v10.53h-0.16L153.36,107.07z"/>
	<path d="M164.35,104.64h5.99v0.99h-4.82v3.6h3.57v0.98h-3.57V114h5.01v1.01h-6.18V104.64z"/>
	<path d="M172.62,104.64h1.28l2.71,7.81l2.83-7.81h0.16l2.83,7.81l2.74-7.81h1.25l-3.86,10.52h-0.16l-2.88-7.89l-2.87,7.89h-0.16
		L172.62,104.64z"/>
	<path d="M88.67,131.84c0-3.12,2.03-5.36,5.31-5.36c1.38,0,2.5,0.4,2.93,0.74v1.81c-0.83-0.56-1.82-0.88-2.83-0.88
		c-2.16,0-3.57,1.49-3.57,3.67c0,2.34,1.6,3.68,3.71,3.68c1.17,0,2.19-0.42,2.85-0.86v1.82c-0.43,0.32-1.6,0.72-3.04,0.72
		C90.6,137.17,88.67,134.88,88.67,131.84z"/>
	<path d="M99.38,131.82c0-3.11,2.02-5.35,5.3-5.35c3.27,0,5.22,2.24,5.22,5.3c0,3.07-1.98,5.39-5.28,5.39
		C101.34,137.17,99.38,134.88,99.38,131.82z M108.05,131.81c0-2.19-1.44-3.67-3.41-3.67s-3.43,1.47-3.43,3.65
		c0,2.16,1.42,3.7,3.44,3.7C106.66,135.49,108.05,133.97,108.05,131.81z"/>
	<path d="M112.8,126.64h6.31v1.54h-4.5v3.01h3.28v1.52h-3.28v4.31h-1.81V126.64z"/>
	<path d="M121.55,126.64h6.31v1.54h-4.5v3.01h3.28v1.52h-3.28v4.31h-1.81V126.64z"/>
	<path d="M130.29,126.64h6.26v1.54h-4.45v2.79h3.2v1.52h-3.2v2.98h4.64v1.55h-6.45V126.64z"/>
	<path d="M139.35,126.64h6.26v1.54h-4.45v2.79h3.2v1.52h-3.2v2.98h4.64v1.55h-6.45V126.64z"/>
	<path d="M152.31,136.54v-1.82c0.66,0.45,1.66,0.85,2.74,0.85c1.14,0,1.7-0.46,1.7-1.3c0-2.11-4.34-1.41-4.34-4.85
		c0-1.81,1.22-2.95,3.28-2.95c0.99,0,1.99,0.26,2.43,0.5v1.82c-0.62-0.4-1.52-0.74-2.32-0.74c-0.98,0-1.57,0.46-1.57,1.26
		c0,2.03,4.35,1.3,4.35,4.8c0,1.98-1.3,3.04-3.49,3.04C153.86,137.17,152.89,136.83,152.31,136.54z"/>
	<path d="M164.12,132.89l-3.7-6.26h2l2.64,4.69l2.66-4.69h1.94l-3.73,6.26v4.11h-1.81V132.89z"/>
	<path d="M171.35,136.54v-1.82c0.66,0.45,1.66,0.85,2.74,0.85c1.14,0,1.7-0.46,1.7-1.3c0-2.11-4.34-1.41-4.34-4.85
		c0-1.81,1.22-2.95,3.28-2.95c0.99,0,1.99,0.26,2.43,0.5v1.82c-0.62-0.4-1.52-0.74-2.32-0.74c-0.98,0-1.57,0.46-1.57,1.26
		c0,2.03,4.35,1.3,4.35,4.8c0,1.98-1.3,3.04-3.49,3.04C172.9,137.17,171.92,136.83,171.35,136.54z"/>
	<path d="M182.57,128.17h-2.95v-1.54h7.68v1.54h-2.93v8.84h-1.81V128.17z"/>
	<path d="M189.82,126.64h6.26v1.54h-4.45v2.79h3.2v1.52h-3.2v2.98h4.64v1.55h-6.45V126.64z"/>
	<path d="M201.39,131.34l-1.02,5.67h-1.81l2.08-10.53h0.16l3.73,7.2l3.71-7.2h0.16l2.08,10.53h-1.78l-1.06-5.68l-3.04,5.84h-0.16
		L201.39,131.34z"/>
</g>
<g>
	<path d="M130.65,376.57v7.44h-1.98v-11.85h0.18l7.69,7.62v-7.44h1.98v11.85h-0.18L130.65,376.57z"/>
	<path d="M143.27,372.34h7.04v1.73h-5.01v3.13h3.6v1.71h-3.6v3.35h5.22v1.75h-7.26V372.34z"/>
	<path d="M153.64,372.34h2.25l2.9,7.22l3.19-7.22h0.18l3.19,7.22l2.93-7.22h2.2l-4.95,11.83h-0.18l-3.28-7.4l-3.28,7.4h-0.18
		L153.64,372.34z"/>
	<path d="M108.27,398.34h2.25l3.37,7.62l3.4-7.62h2.2l-5.51,11.83h-0.18L108.27,398.34z"/>
	<path d="M123.04,398.34h7.04v1.73h-5.01v3.13h3.6v1.71h-3.6v3.35h5.22v1.75h-7.26V398.34z"/>
	<path d="M143.02,410.01h-2.45l-2.61-4.14h-1.8v4.14h-2.03v-11.67h3.48c2.47,0,4.83,0.59,4.83,3.75c0,1.96-1.1,3.06-2.38,3.47
		L143.02,410.01z M140.35,402.1c0-1.93-1.76-2.05-2.97-2.05h-1.22v4.12h1.22C138.8,404.17,140.35,403.96,140.35,402.1z"/>
	<path d="M149.11,400.07h-3.31v-1.73h8.64v1.73h-3.29v9.94h-2.03V400.07z"/>
	<path d="M158.1,405.29v-6.95h2.03v6.54c0,2.12,0.49,3.46,2.58,3.46c2.03,0,2.59-1.28,2.59-3.46v-6.54h2.02v6.93
		c0,3.53-1.62,4.92-4.61,4.92C159.65,410.19,158.1,408.73,158.1,405.29z"/>
	<path d="M171.38,404.17c0-3.49,2.27-6.01,5.96-6.01c3.67,0,5.87,2.52,5.87,5.96c0,3.46-2.23,6.07-5.94,6.07
		C173.6,410.19,171.38,407.61,171.38,404.17z M181.14,404.16c0-2.47-1.62-4.12-3.83-4.12s-3.85,1.66-3.85,4.1
		c0,2.43,1.6,4.16,3.87,4.16C179.57,408.3,181.14,406.59,181.14,404.16z"/>
	<path d="M186.61,408.91c0-0.72,0.56-1.24,1.24-1.24c0.7,0,1.22,0.52,1.22,1.26s-0.54,1.24-1.22,1.24
		C187.11,410.17,186.61,409.65,186.61,408.91z"/>
</g>
<g>
	<path d="M107.66,436.2l-0.9,4.96h-1.58l1.82-9.22h0.14l3.26,6.3l3.25-6.3h0.14l1.82,9.22h-1.55l-0.92-4.97l-2.66,5.11h-0.14
		L107.66,436.2z"/>
	<path d="M118.22,436.62c0-2.72,1.77-4.68,4.64-4.68c2.86,0,4.57,1.96,4.57,4.64c0,2.69-1.74,4.72-4.62,4.72
		C119.94,441.3,118.22,439.3,118.22,436.62z M125.81,436.61c0-1.92-1.26-3.21-2.98-3.21c-1.72,0-3,1.29-3,3.19
		c0,1.89,1.25,3.24,3.01,3.24C124.59,439.83,125.81,438.5,125.81,436.61z"/>
	<path d="M137.6,441.16h-1.91l-2.03-3.22h-1.4v3.22h-1.58v-9.08h2.7c1.92,0,3.75,0.46,3.75,2.91c0,1.53-0.85,2.38-1.85,2.7
		L137.6,441.16z M135.52,435.01c0-1.5-1.37-1.6-2.31-1.6h-0.95v3.21h0.95C134.32,436.62,135.52,436.45,135.52,435.01z"/>
	<path d="M140.53,432.08h5.48v1.34h-3.89v2.44h2.8v1.33h-2.8v2.61h4.06v1.36h-5.65V432.08z"/>
	<path d="M153.54,432.08h5.52v1.34h-3.94v2.63h2.87v1.33h-2.87v3.77h-1.58V432.08z"/>
	<path d="M168.82,441.16h-1.91l-2.03-3.22h-1.4v3.22h-1.58v-9.08h2.7c1.92,0,3.75,0.46,3.75,2.91c0,1.53-0.85,2.38-1.85,2.7
		L168.82,441.16z M166.75,435.01c0-1.5-1.37-1.6-2.31-1.6h-0.95v3.21h0.95C165.54,436.62,166.75,436.45,166.75,435.01z"/>
	<path d="M171.18,436.62c0-2.72,1.77-4.68,4.64-4.68c2.86,0,4.57,1.96,4.57,4.64c0,2.69-1.74,4.72-4.62,4.72
		C172.91,441.3,171.18,439.3,171.18,436.62z M178.78,436.61c0-1.92-1.26-3.21-2.98-3.21c-1.72,0-3,1.29-3,3.19
		c0,1.89,1.25,3.24,3.01,3.24C177.56,439.83,178.78,438.5,178.78,436.61z"/>
	<path d="M185.47,436.2l-0.9,4.96h-1.58l1.82-9.22h0.14l3.26,6.3l3.25-6.3h0.14l1.82,9.22h-1.55l-0.92-4.97l-2.66,5.11h-0.14
		L185.47,436.2z"/>
	<path d="M107.92,453.08h5.48v1.34h-3.89v2.44h2.8v1.33h-2.8v2.61h4.06v1.36h-5.65V453.08z"/>
	<path d="M115.95,453.08h1.75l2.62,5.93l2.65-5.93h1.71l-4.29,9.2h-0.14L115.95,453.08z"/>
	<path d="M127.45,453.08h5.48v1.34h-3.89v2.44h2.8v1.33h-2.8v2.61h4.06v1.36h-5.65V453.08z"/>
	<path d="M143.01,462.16h-1.91l-2.03-3.22h-1.4v3.22h-1.58v-9.08h2.7c1.92,0,3.75,0.46,3.75,2.91c0,1.53-0.85,2.38-1.85,2.7
		L143.01,462.16z M140.94,456.01c0-1.5-1.37-1.6-2.31-1.6h-0.95v3.21h0.95C139.73,457.62,140.94,457.45,140.94,456.01z"/>
	<path d="M147.93,458.56l-3.24-5.48h1.75l2.31,4.1l2.32-4.1h1.7l-3.26,5.48v3.6h-1.58V458.56z"/>
	<path d="M159.49,457.64c0-2.73,1.78-4.69,4.65-4.69c1.2,0,2.18,0.35,2.56,0.64v1.58c-0.73-0.49-1.6-0.77-2.48-0.77
		c-1.89,0-3.12,1.3-3.12,3.21c0,2.04,1.4,3.22,3.25,3.22c1.02,0,1.92-0.36,2.49-0.76v1.6c-0.38,0.28-1.4,0.63-2.66,0.63
		C161.18,462.3,159.49,460.3,159.49,457.64z"/>
	<path d="M170.03,458.49v-5.41h1.58v5.08c0,1.65,0.38,2.69,2,2.69c1.58,0,2.02-0.99,2.02-2.69v-5.08h1.57v5.39
		c0,2.75-1.26,3.82-3.59,3.82C171.23,462.3,170.03,461.17,170.03,458.49z"/>
	<path d="M187.38,456.08c0,2.89-2.44,3.01-4.06,3.01h-0.9v3.07h-1.58v-9.08h2.65C185.61,453.08,187.38,453.55,187.38,456.08z
		 M185.77,456.09c0-1.55-1.32-1.68-2.49-1.68h-0.85v3.36h0.85C184.44,457.78,185.77,457.62,185.77,456.09z"/>
	<path d="M188.93,461.31c0-0.56,0.43-0.97,0.97-0.97c0.55,0,0.95,0.41,0.95,0.98s-0.42,0.97-0.95,0.97
		C189.33,462.29,188.93,461.88,188.93,461.31z"/>
</g>
<g>
	<path fill="#FFFFFF" d="M109.28,500.95c0,3.41-2.53,3.98-4.76,3.98h-1.62v-7.77h1.55C106.75,497.16,109.28,497.52,109.28,500.95z
		 M108.38,500.95c0-2.69-1.82-3.05-3.93-3.05h-0.67v6.27h0.65C106.57,504.17,108.38,503.62,108.38,500.95z"/>
	<path fill="#FFFFFF" d="M111.65,497.16h0.88v7.77h-0.88V497.16z"/>
	<path fill="#FFFFFF" d="M114.96,504.58v-0.91c0.46,0.3,1.19,0.6,2,0.6c0.97,0,1.62-0.4,1.62-1.34c0-1.93-3.55-1.27-3.55-3.79
		c0-1.29,0.88-2.1,2.34-2.1c0.79,0,1.49,0.24,1.79,0.41v0.9c-0.47-0.3-1.12-0.54-1.74-0.54c-0.88,0-1.5,0.44-1.5,1.28
		c0,1.85,3.55,1.15,3.55,3.78c0,1.5-0.97,2.18-2.48,2.18C116.11,505.05,115.39,504.81,114.96,504.58z"/>
	<path fill="#FFFFFF" d="M121.3,501.05c0-2.34,1.39-4.02,3.84-4.02c1.04,0,1.87,0.31,2.21,0.56v0.9c-0.61-0.42-1.34-0.66-2.16-0.66
		c-1.86,0-3,1.26-3,3.19c0,2.05,1.28,3.2,3.06,3.2c0.92,0,1.73-0.3,2.22-0.65v0.91c-0.31,0.22-1.19,0.55-2.3,0.55
		C122.69,505.05,121.3,503.39,121.3,501.05z"/>
	<path fill="#FFFFFF" d="M129.21,501.04c0-2.27,1.4-4.01,3.85-4.01c2.46,0,3.8,1.74,3.8,3.96c0,2.27-1.37,4.05-3.84,4.05
		C130.58,505.05,129.21,503.27,129.21,501.04z M135.98,501.01c0-1.83-1.15-3.17-2.94-3.17c-1.74,0-2.94,1.32-2.94,3.18
		c0,1.82,1.14,3.21,2.95,3.21C134.85,504.23,135.98,502.88,135.98,501.01z"/>
	<path fill="#FFFFFF" d="M138.06,497.16h0.96l2.67,6.1l2.67-6.1h0.95l-3.56,7.88h-0.12L138.06,497.16z"/>
	<path fill="#FFFFFF" d="M147.28,497.16h4.49v0.74h-3.61v2.7h2.67v0.73h-2.67v2.84h3.75v0.76h-4.63V497.16z"/>
	<path fill="#FFFFFF" d="M159.55,504.93h-1.06l-1.86-2.96h-1.86v2.96h-0.88v-7.77h2.43c1.63,0,2.88,0.61,2.88,2.39
		c0,1.43-0.83,2.09-1.67,2.3L159.55,504.93z M158.31,499.55c0-1.29-1.01-1.66-2.12-1.66h-1.42v3.33h1.47
		C157.31,501.23,158.31,500.91,158.31,499.55z"/>
	<path fill="#FFFFFF" d="M166.21,499.42l-1.01,5.5h-0.89l1.54-7.89h0.12l2.73,6.26l2.73-6.26h0.12l1.52,7.89h-0.86l-1.02-5.49
		l-2.43,5.61h-0.12L166.21,499.42z"/>
	<path fill="#FFFFFF" d="M174.81,501.04c0-2.27,1.4-4.01,3.85-4.01c2.46,0,3.8,1.74,3.8,3.96c0,2.27-1.37,4.05-3.84,4.05
		C176.18,505.05,174.81,503.27,174.81,501.04z M181.58,501.01c0-1.83-1.15-3.17-2.94-3.17c-1.74,0-2.94,1.32-2.94,3.18
		c0,1.82,1.14,3.21,2.95,3.21C180.45,504.23,181.58,502.88,181.58,501.01z"/>
	<path fill="#FFFFFF" d="M190.47,504.93h-1.05l-1.86-2.96h-1.86v2.96h-0.88v-7.77h2.43c1.63,0,2.88,0.61,2.88,2.39
		c0,1.43-0.83,2.09-1.67,2.3L190.47,504.93z M189.24,499.55c0-1.29-1.01-1.66-2.12-1.66h-1.42v3.33h1.47
		C188.24,501.23,189.24,500.91,189.24,499.55z"/>
	<path fill="#FFFFFF" d="M192.56,497.16h4.49v0.74h-3.61v2.7h2.67v0.73h-2.67v2.84h3.75v0.76h-4.63V497.16z"/>
</g>
<g>
	<path d="M128.09,167.64h6.02v0.99h-4.85v3.79h3.63v0.99h-3.63v4.59h-1.17V167.64z"/>
	<path d="M135.83,172.82c0-3.03,1.87-5.35,5.14-5.35c3.28,0,5.07,2.32,5.07,5.28c0,3.02-1.82,5.41-5.12,5.41
		C137.65,178.17,135.83,175.8,135.83,172.82z M144.86,172.77c0-2.45-1.54-4.23-3.92-4.23c-2.32,0-3.92,1.76-3.92,4.24
		c0,2.43,1.52,4.29,3.94,4.29C143.35,177.08,144.86,175.27,144.86,172.77z"/>
	<path d="M156.7,178.01h-1.41l-2.48-3.95h-2.48v3.95h-1.17v-10.37h3.25c2.18,0,3.84,0.82,3.84,3.19c0,1.9-1.1,2.79-2.22,3.07
		L156.7,178.01z M155.05,170.84c0-1.73-1.34-2.21-2.83-2.21h-1.89v4.45h1.97C153.72,173.08,155.05,172.65,155.05,170.84z"/>
	<path d="M167.29,167.48h0.16l4.69,10.53h-1.26l-0.98-2.27h-5.09l-0.99,2.27h-1.22L167.29,167.48z M169.5,174.74l-2.13-4.98
		l-2.16,4.98H169.5z"/>
	<path d="M99.5,189.64h6.31v1.54h-4.5v3.01h3.28v1.52h-3.28v4.31H99.5V189.64z"/>
	<path d="M108.19,195.81v-6.18H110v5.81c0,1.89,0.43,3.07,2.29,3.07c1.81,0,2.31-1.14,2.31-3.07v-5.81h1.79v6.16
		c0,3.14-1.44,4.37-4.1,4.37C109.56,200.17,108.19,198.87,108.19,195.81z"/>
	<path d="M119.73,189.64h1.81v8.82h4.8v1.55h-6.61V189.64z"/>
	<path d="M128.8,189.64h1.81v8.82h4.8v1.55h-6.61V189.64z"/>
	<path d="M136.06,194.02h3.2v1.41h-3.2V194.02z"/>
	<path d="M149.74,197.06c0,2.67-2.69,2.95-4.26,2.95h-3.25v-10.37h2.64c2.05,0,4.26,0.26,4.26,2.83c0,1.18-0.64,1.79-1.3,2.03
		C148.7,194.69,149.74,195.29,149.74,197.06z M144.86,191.14h-0.82v2.85h0.78c1.25,0,2.48-0.1,2.48-1.42
		C147.31,191.2,146.07,191.14,144.86,191.14z M147.9,196.97c0-1.33-1.15-1.49-2.39-1.49h-1.47v2.99h1.42
		C146.73,198.47,147.9,198.3,147.9,196.97z"/>
	<path d="M151.99,194.82c0-3.11,2.02-5.35,5.3-5.35c3.27,0,5.22,2.24,5.22,5.3c0,3.07-1.98,5.39-5.28,5.39
		C153.96,200.17,151.99,197.88,151.99,194.82z M160.67,194.81c0-2.19-1.44-3.67-3.41-3.67s-3.43,1.47-3.43,3.65
		c0,2.16,1.42,3.7,3.44,3.7C159.27,198.49,160.67,196.97,160.67,194.81z"/>
	<path d="M174.2,194.69c0,4.55-3.76,5.31-6.77,5.31h-2.02v-10.37h1.95C170.47,189.64,174.2,190.12,174.2,194.69z M172.36,194.69
		c0-3.09-2.24-3.54-4.99-3.54h-0.14v7.31h0.08C170.15,198.47,172.36,197.7,172.36,194.69z"/>
	<path d="M177.12,189.64h1.81v10.37h-1.81V189.64z"/>
	<path d="M182.34,189.64h6.26v1.54h-4.45v2.79h3.2v1.52h-3.2v2.98h4.64v1.55h-6.45V189.64z"/>
	<path d="M200.19,194.69c0,4.55-3.76,5.31-6.77,5.31h-2.02v-10.37h1.95C196.46,189.64,200.19,190.12,200.19,194.69z M198.34,194.69
		c0-3.09-2.24-3.54-4.99-3.54h-0.14v7.31h0.08C196.14,198.47,198.34,197.7,198.34,194.69z"/>
	<path d="M107.38,211.64h1.17V221h5.17v1.01h-6.34V211.64z"/>
	<path d="M120.58,211.48h0.16l4.69,10.53h-1.26l-0.98-2.27h-5.09l-0.99,2.27h-1.22L120.58,211.48z M122.79,218.74l-2.13-4.98
		l-2.16,4.98H122.79z"/>
	<path d="M135.56,222.01h-1.41l-2.48-3.95h-2.48v3.95h-1.17v-10.37h3.25c2.18,0,3.84,0.82,3.84,3.19c0,1.9-1.1,2.79-2.23,3.07
		L135.56,222.01z M133.91,214.84c0-1.73-1.34-2.21-2.83-2.21h-1.89v4.45h1.97C132.58,217.08,133.91,216.65,133.91,214.84z"/>
	<path d="M137.65,216.84c0-3.39,2.18-5.36,5.23-5.36c1.84,0,3.17,0.7,3.35,0.83v1.2c-0.66-0.42-1.87-0.96-3.27-0.96
		c-2.37,0-4.13,1.52-4.13,4.27c0,2.45,1.46,4.26,3.99,4.26c2.31,0,3.33-1.41,3.41-3.51h-3.47v-1.01h4.64v0.45
		c0,2.29-0.75,5.15-4.58,5.15C139.43,222.17,137.65,219.88,137.65,216.84z"/>
	<path d="M150.37,211.64h5.99v0.99h-4.82v3.6h3.57v0.98h-3.57V221h5.01v1.01h-6.18V211.64z"/>
	<path d="M162.9,216.84c0-3.12,1.86-5.36,5.12-5.36c1.39,0,2.5,0.42,2.95,0.75v1.2c-0.82-0.56-1.79-0.88-2.88-0.88
		c-2.48,0-4,1.68-4,4.26c0,2.74,1.71,4.27,4.08,4.27c1.23,0,2.31-0.4,2.96-0.86v1.22c-0.42,0.29-1.58,0.74-3.07,0.74
		C164.75,222.17,162.9,219.96,162.9,216.84z"/>
	<path d="M173.94,217.85v-6.21h1.17v5.95c0,2.37,0.77,3.51,2.79,3.51c1.94,0,2.82-1.07,2.82-3.51v-5.95h1.15v6.19
		c0,3.06-1.36,4.34-3.95,4.34C175.14,222.17,173.94,220.71,173.94,217.85z"/>
	<path d="M192.59,214.92c0,2.88-2.29,3.31-4.23,3.31h-1.81v3.78h-1.17v-10.37h3.06C190.67,211.64,192.59,212.18,192.59,214.92z
		 M191.41,214.92c0-1.89-1.41-2.29-3.11-2.29h-1.75v4.61h1.75C189.97,217.24,191.41,216.79,191.41,214.92z"/>
</g>
<g>
	<path d="M129.79,272.64h1.28l2.71,7.81l2.83-7.81h0.16l2.83,7.81l2.74-7.81h1.25l-3.86,10.52h-0.16l-2.88-7.89l-2.87,7.89h-0.16
		L129.79,272.64z"/>
	<path d="M146.26,272.64h1.17v10.37h-1.17V272.64z"/>
	<path d="M153.23,273.63h-3.12v-0.99h7.41v0.99h-3.12v9.38h-1.17V273.63z"/>
	<path d="M160.21,272.64h1.17v4.59h5.99v-4.59h1.17v10.37h-1.17v-4.77h-5.99v4.77h-1.17V272.64z"/>
	<path d="M91.29,299.82c0-3.03,1.87-5.35,5.14-5.35c3.28,0,5.07,2.32,5.07,5.28c0,3.03-1.82,5.41-5.12,5.41
		C93.11,305.17,91.29,302.8,91.29,299.82z M100.32,299.77c0-2.45-1.54-4.23-3.92-4.23c-2.32,0-3.92,1.76-3.92,4.24
		c0,2.43,1.52,4.29,3.94,4.29C98.81,304.08,100.32,302.27,100.32,299.77z"/>
	<path d="M105.75,297.07v7.94h-1.14v-10.53h0.16l7.19,8.12v-7.96h1.14v10.53h-0.16L105.75,297.07z"/>
	<path d="M116.74,294.64h5.99v0.99h-4.82v3.6h3.57v0.98h-3.57V304h5.01v1.01h-6.18V294.64z"/>
	<path d="M124.44,299.26h2.93v0.91h-2.93V299.26z"/>
	<path d="M130.06,299.82c0-3.03,1.87-5.35,5.14-5.35c3.28,0,5.07,2.32,5.07,5.28c0,3.03-1.82,5.41-5.12,5.41
		C131.88,305.17,130.06,302.8,130.06,299.82z M139.08,299.77c0-2.45-1.54-4.23-3.92-4.23c-2.32,0-3.92,1.76-3.92,4.24
		c0,2.43,1.52,4.29,3.94,4.29C137.58,304.08,139.08,302.27,139.08,299.77z"/>
	<path d="M143.39,294.64h6.02v0.99h-4.85v3.79h3.63v0.99h-3.63v4.59h-1.17V294.64z"/>
	<path d="M151.02,299.26h2.93v0.91h-2.93V299.26z"/>
	<path d="M159.89,294.48h0.16l4.69,10.53h-1.26l-0.98-2.27h-5.09l-0.99,2.27h-1.22L159.89,294.48z M162.1,301.74l-2.13-4.98
		l-2.16,4.98H162.1z"/>
	<path d="M166,299.26h2.93v0.91H166V299.26z"/>
	<path d="M171.94,294.64h1.17v5.01l5.15-5.01h1.55l-5.31,5.09l5.44,5.28h-1.6l-5.23-5.14v5.14h-1.17V294.64z"/>
	<path d="M182.5,294.64h1.17v10.37h-1.17V294.64z"/>
	<path d="M188.42,297.07v7.94h-1.14v-10.53h0.16l7.19,8.12v-7.96h1.14v10.53h-0.16L188.42,297.07z"/>
	<path d="M207.92,299.69c0,4.55-3.38,5.31-6.36,5.31h-2.16v-10.37h2.06C204.54,294.64,207.92,295.12,207.92,299.69z M206.72,299.69
		c0-3.59-2.43-4.07-5.25-4.07h-0.9V304h0.86C204.3,304,206.72,303.26,206.72,299.69z"/>
	<path d="M122.66,321.84c0-3.12,2.03-5.36,5.31-5.36c1.38,0,2.5,0.4,2.93,0.74v1.81c-0.83-0.56-1.82-0.88-2.83-0.88
		c-2.16,0-3.57,1.49-3.57,3.67c0,2.34,1.6,3.68,3.71,3.68c1.17,0,2.19-0.42,2.85-0.86v1.83c-0.43,0.32-1.6,0.72-3.04,0.72
		C124.6,327.17,122.66,324.88,122.66,321.84z"/>
	<path d="M142.01,327.01h-2.18l-2.32-3.68h-1.6v3.68h-1.81v-10.37h3.09c2.19,0,4.29,0.53,4.29,3.33c0,1.75-0.98,2.72-2.11,3.09
		L142.01,327.01z M139.64,319.98c0-1.71-1.57-1.83-2.64-1.83h-1.09v3.67H137C138.26,321.82,139.64,321.63,139.64,319.98z"/>
	<path d="M144.55,316.64h6.26v1.54h-4.45v2.79h3.2v1.52h-3.2v2.98H151v1.55h-6.45V316.64z"/>
	<path d="M156.12,321.34l-1.02,5.67h-1.81l2.08-10.53h0.16l3.73,7.2l3.71-7.2h0.16l2.08,10.53h-1.78l-1.06-5.68l-3.04,5.84h-0.16
		L156.12,321.34z"/>
	<path d="M172.13,316.48h0.16l4.74,10.53h-1.94l-0.78-1.82h-4.27l-0.78,1.82h-1.87L172.13,316.48z M173.73,323.68l-1.54-3.6
		l-1.55,3.6H173.73z"/>
</g>
<g>
</g>
<g>
</g>
<g>
</g>
<g>
</g>
<g>
</g>
<g>
</g>
</svg>
