<?xml version="1.0" encoding="utf-8"?>
<!-- Generator: Adobe Illustrator 22.0.1, SVG Export Plug-In . SVG Version: 6.00 Build 0)  -->
<svg version="1.1" baseProfile="tiny" id="Layer_1" xmlns="http://www.w3.org/2000/svg" xmlns:xlink="http://www.w3.org/1999/xlink"
	 x="0px" y="0px" viewBox="0 0 602 95" xml:space="preserve">
<g>
	<path fill="#FFFFFF" d="M100.6,26.2c0,10.8-9.3,12.7-15.9,12.7h-5.8V14.2h5.4C91.2,14.2,100.6,15.3,100.6,26.2z M94.4,26.2
		c0-6-4.6-7.2-9.4-7.3v15.1C90.1,33.9,94.4,32,94.4,26.2z"/>
	<path fill="#FFFFFF" d="M111,14.2h6v24.7h-6V14.2z"/>
	<path fill="#FFFFFF" d="M127.9,37.8v-5.7c1.7,1.2,4.1,2.2,6.6,2.2c1.9,0,2.9-0.8,2.9-2c0-3.9-9.3-2.7-9.3-11.1c0-4.5,3-7.3,8.3-7.3
		c2.8,0,5,0.7,5.9,1.2v5.6c-1.5-1-3.7-1.8-5.5-1.8c-1.8,0-2.6,0.8-2.6,2.1c0,3.8,9.4,2.6,9.4,10.9c0,4.7-3.1,7.5-8.8,7.5
		C131.6,39.3,129.2,38.4,127.9,37.8z"/>
	<path fill="#FFFFFF" d="M152.6,26.6c0-7.4,5.3-12.8,13.2-12.8c3,0,5.4,0.7,6.9,1.6v5.8c-2-1.3-4.4-2-6.6-2c-4.2,0-7.3,3-7.3,7.3
		c0,4.6,3.1,7.3,7.4,7.3c3.5,0,5.8-1.3,6.9-2.1v5.9c-1.4,0.9-4,1.6-7.2,1.6C157.4,39.3,152.6,33.6,152.6,26.6z"/>
	<path fill="#FFFFFF" d="M183.2,26.5c0-7.6,5.2-12.7,13.1-12.7c7.7,0,12.8,5.1,12.8,12.7c0,7.4-5.2,12.8-13.1,12.8
		C188.3,39.3,183.2,34,183.2,26.5z M202.9,26.6c0-4.8-3.2-7.4-6.7-7.4c-3.7,0-6.7,2.6-6.7,7.2c0,4.9,3.1,7.3,6.8,7.3
		C199.8,33.8,202.9,31.3,202.9,26.6z"/>
	<path fill="#FFFFFF" d="M215.9,14.2h6.7l5.6,13.2l5.7-13.2h6.5l-12,25h-0.4L215.9,14.2z"/>
	<path fill="#FFFFFF" d="M249.7,14.2h15.6v4.9h-9.6v4.8h6.6v4.8h-6.6V34h10.1v4.9h-16.1V14.2z"/>
	<path fill="#FFFFFF" d="M295.8,38.9h-7.3l-5-8.2H282v8.2h-6V14.2h7.7c4.7,0,10.4,1,10.4,8.2c0,4.2-2.2,6.4-4.6,7.4L295.8,38.9z
		 M288,22.4c0-3-2.3-3.5-5-3.5H282V26h0.9C285.9,26,288,25.3,288,22.4z"/>
	<path fill="#FFFFFF" d="M318.4,26.5c0-7.6,5.2-12.7,13.1-12.7c7.7,0,12.8,5.1,12.8,12.7c0,7.4-5.2,12.8-13.1,12.8
		C323.5,39.3,318.4,34,318.4,26.5z M338.1,26.6c0-4.8-3.2-7.4-6.7-7.4c-3.7,0-6.7,2.6-6.7,7.2c0,4.9,3.1,7.3,6.8,7.3
		C335,33.8,338.1,31.3,338.1,26.6z"/>
	<path fill="#FFFFFF" d="M354.6,28.8V14.2h6v13.5c0,3.4,0.1,6.3,4.1,6.3c4,0,4.1-2.9,4.1-6.3V14.2h6v14.6c0,7.7-3.7,10.5-10.1,10.5
		C358.3,39.3,354.6,36.5,354.6,28.8z"/>
	<path fill="#FFFFFF" d="M405.9,38.9h-7.3l-5-8.2h-1.5v8.2h-6V14.2h7.7c4.7,0,10.4,1,10.4,8.2c0,4.2-2.2,6.4-4.6,7.4L405.9,38.9z
		 M398,22.4c0-3-2.3-3.5-5-3.5h-0.9V26h0.9C395.9,26,398,25.3,398,22.4z"/>
	<path fill="#FFFFFF" d="M435.3,26v12.8h-5.9V13.8h0.4L445.1,27l0-12.8h5.9v25.1h-0.4L435.3,26z"/>
	<path fill="#FFFFFF" d="M462.5,14.2h15.6v4.9h-9.6v4.8h6.6v4.8h-6.6V34h10.1v4.9h-16.1V14.2z"/>
	<path fill="#FFFFFF" d="M487.3,14.2h6.7l5.6,12.9l6.7-12.9h0.4l6.7,12.9l5.7-12.9h6.5l-11.9,25h-0.4l-6.8-13.2l-6.9,13.2h-0.4
		L487.3,14.2z"/>
	<path fill="#FFFFFF" d="M7.4,56.1h6v19.8h10.4v4.9H7.4V56.1z"/>
	<path fill="#FFFFFF" d="M33.9,56.1h6v24.7h-6V56.1z"/>
	<path fill="#FFFFFF" d="M57.7,70.7l-1.8,10.1h-6.1l5-25.1h0.4l9.1,14.8l9.1-14.8h0.4l5,25.1H73l-1.9-10.1l-6.4,10.5h-0.4L57.7,70.7
		z"/>
	<path fill="#FFFFFF" d="M88.9,56.1h6v24.7h-6V56.1z"/>
	<path fill="#FFFFFF" d="M111.4,61h-6.5v-4.9h19V61h-6.5v19.8h-6V61z"/>
	<path fill="#FFFFFF" d="M133.9,56.1h15.6V61h-9.6v4.8h6.6v4.8h-6.6v5.3H150v4.9h-16.1V56.1z"/>
	<path fill="#FFFFFF" d="M181.9,68.2c0,10.8-9.3,12.7-15.9,12.7h-5.8V56.1h5.4C172.5,56.1,181.9,57.3,181.9,68.2z M175.7,68.2
		c0-6-4.6-7.2-9.4-7.3V76C171.4,75.9,175.7,73.9,175.7,68.2z"/>
	<path fill="#FFFFFF" d="M206.4,56.1H222V61h-9.6v4.8h6.6v4.8h-6.6v5.3h10.1v4.9h-16.1V56.1z"/>
	<path fill="#FFFFFF" d="M254.4,68.2c0,10.8-9.3,12.7-15.9,12.7h-5.8V56.1h5.4C245,56.1,254.4,57.3,254.4,68.2z M248.2,68.2
		c0-6-4.6-7.2-9.4-7.3V76C244,75.9,248.2,73.9,248.2,68.2z"/>
	<path fill="#FFFFFF" d="M264.8,56.1h6v24.7h-6V56.1z"/>
	<path fill="#FFFFFF" d="M287.3,61h-6.5v-4.9h19V61h-6.5v19.8h-6V61z"/>
	<path fill="#FFFFFF" d="M309.8,56.1h6v24.7h-6V56.1z"/>
	<path fill="#FFFFFF" d="M326.2,68.5c0-7.6,5.2-12.7,13.1-12.7c7.7,0,12.8,5.1,12.8,12.7c0,7.4-5.2,12.8-13.1,12.8
		C331.3,81.2,326.2,75.9,326.2,68.5z M345.9,68.5c0-4.8-3.2-7.4-6.7-7.4c-3.7,0-6.7,2.6-6.7,7.2c0,4.9,3.1,7.3,6.8,7.3
		C342.8,75.7,345.9,73.2,345.9,68.5z"/>
	<path fill="#FFFFFF" d="M368.4,68v12.8h-5.9V55.7h0.4L378.2,69l0-12.8h5.9v25.1h-0.4L368.4,68z"/>
	<path fill="#FFFFFF" d="M408.6,68.5c0-7.4,5.3-12.8,13.2-12.8c3,0,5.4,0.7,6.9,1.6v5.8c-2-1.3-4.4-2-6.6-2c-4.2,0-7.3,3-7.3,7.3
		c0,4.6,3.1,7.3,7.4,7.3c3.5,0,5.8-1.3,6.9-2.1v5.9c-1.4,0.9-4,1.6-7.2,1.6C413.4,81.2,408.6,75.5,408.6,68.5z"/>
	<path fill="#FFFFFF" d="M439.2,68.5c0-7.6,5.2-12.7,13.1-12.7c7.7,0,12.8,5.1,12.8,12.7c0,7.4-5.2,12.8-13.1,12.8
		C444.2,81.2,439.2,75.9,439.2,68.5z M458.9,68.5c0-4.8-3.2-7.4-6.7-7.4c-3.7,0-6.7,2.6-6.7,7.2c0,4.9,3.1,7.3,6.8,7.3
		C455.8,75.7,458.9,73.2,458.9,68.5z"/>
	<path fill="#FFFFFF" d="M475.5,56.1h15.8V61h-9.8v5.4h6.9v4.8h-6.9v9.6h-6V56.1z"/>
	<path fill="#FFFFFF" d="M501.2,56.1h15.8V61h-9.8v5.4h6.9v4.8h-6.9v9.6h-6V56.1z"/>
	<path fill="#FFFFFF" d="M526.9,56.1h15.6V61h-9.6v4.8h6.6v4.8h-6.6v5.3h10.1v4.9h-16.1V56.1z"/>
	<path fill="#FFFFFF" d="M553.2,56.1h15.6V61h-9.6v4.8h6.6v4.8h-6.6v5.3h10.1v4.9h-16.1V56.1z"/>
	<path fill="#FFFFFF" d="M579,79.7V74c1.7,1.2,4.1,2.2,6.6,2.2c1.9,0,2.9-0.8,2.9-2c0-3.9-9.3-2.7-9.3-11.1c0-4.5,3-7.3,8.3-7.3
		c2.8,0,5,0.7,5.9,1.2v5.6c-1.5-1-3.7-1.8-5.5-1.8c-1.8,0-2.6,0.8-2.6,2.1c0,3.8,9.4,2.6,9.4,10.9c0,4.7-3.1,7.5-8.8,7.5
		C582.8,81.2,580.4,80.3,579,79.7z"/>
</g>
</svg>
