<?xml version="1.0" encoding="utf-8"?>
<!-- Generator: Adobe Illustrator 22.1.0, SVG Export Plug-In . SVG Version: 6.00 Build 0)  -->
<svg version="1.1" id="Layer_1" xmlns="http://www.w3.org/2000/svg" xmlns:xlink="http://www.w3.org/1999/xlink" x="0px" y="0px"
	 viewBox="0 0 736 260" style="enable-background:new 0 0 736 260;" xml:space="preserve">
<style type="text/css">
	.st0{fill:#FFFFFF;}
</style>
<g>
	<path class="st0" d="M389,121.3c1.6-4.3,1.2-10.2-0.5-13.8C390.3,111.1,390.7,117,389,121.3z"/>
	<path class="st0" d="M605.1,123.7c0.2-2.4,0.5-4.6,0.9-6.5C605.6,119.1,605.3,121.2,605.1,123.7z"/>
	<path class="st0" d="M606,117.1c2.5-11.9,9-14.6,12.9-15.2C615,102.6,608.6,105.3,606,117.1z"/>
	<path class="st0" d="M620.5,101.8c-0.4,0-0.8,0.1-1.2,0.1C619.7,101.8,620.1,101.8,620.5,101.8z"/>
	<path class="st0" d="M621.6,157.5c-1.3,0-8.4,0.3-12.9-8.4C613.3,157.7,620.3,157.4,621.6,157.5z"/>
	<path class="st0" d="M668.7,155.7c-0.1-1-0.9-1.2-1.6-1.2h-2.6v-0.1h2.6C667.9,154.5,668.7,154.7,668.7,155.7z"/>
	<path class="st0" d="M621.7,92.9c-4.8,0-35.8,0.5-35.9,37c0,36.3,30.6,37.7,35.9,37.7c5.4-0.1,36-1.5,35.9-37.7
		C657.6,93.4,626.6,92.9,621.7,92.9z M638.7,131.4c0,0.6,0,1.2-0.1,1.8c0,0.2,0,0.5,0,0.7c-0.1,1.1-0.2,2.1-0.3,3.1
		c0,0.2-0.1,0.5-0.1,0.8c-0.2,1.8-0.5,3.4-0.9,4.9c-0.1,0.3-0.1,0.5-0.2,0.8c-0.2,0.7-0.4,1.5-0.6,2.1c-0.1,0.3-0.2,0.5-0.3,0.8
		c-0.2,0.5-0.4,1.1-0.6,1.5c-0.3,0.6-0.6,1.2-0.9,1.7c0,0,0,0.1,0,0.1c-4.5,8-11.3,7.8-12.7,7.8h-0.3c-1.3-0.1-8.4,0.2-12.9-8.4
		c-0.2-0.4-0.5-0.9-0.7-1.4c-0.1-0.2-0.2-0.5-0.3-0.7c-0.1-0.2-0.2-0.5-0.3-0.7c-0.1-0.2-0.2-0.5-0.3-0.8c-0.1-0.3-0.2-0.5-0.3-0.8
		c-0.1-0.3-0.2-0.5-0.2-0.8c-0.1-0.2-0.1-0.5-0.2-0.8c-0.4-1.6-0.8-3.4-1.1-5.4c0-0.2-0.1-0.5-0.1-0.8c-0.1-1-0.2-2-0.3-3.1
		c0-0.2,0-0.5-0.1-0.7c0-0.6-0.1-1.2-0.1-1.8c0-1,0-1.9,0-3c0-0.8,0-1.6,0-2.4c0-0.7,0.1-1.4,0.1-2.1c0-0.1,0-0.2,0-0.3
		c0.2-2.4,0.5-4.6,0.9-6.5c2.5-11.8,9-14.6,12.9-15.2c0.1,0,0.2,0,0.3,0c0.5-0.1,0.9-0.1,1.2-0.1c0.6,0,1.1,0,1.4,0
		c0.3,0,0.8,0,1.4,0c0.4,0,0.8,0,1.2,0.1c0.1,0,0.2,0,0.3,0c3.9,0.6,10.4,3.3,12.9,15.2c0.4,1.9,0.7,4.1,0.9,6.5c0,0.1,0,0.2,0,0.3
		c0,0.7,0.1,1.3,0.1,2.1c0,0.8,0,1.6,0,2.4C638.7,129.5,638.7,130.5,638.7,131.4z"/>
	<path class="st0" d="M513.6,102.2c3.7,1.1,5.7,2.3,9.2,3.8V97c-15-4.4-39-8.5-48.5,6.6c-3.5,6.2-4.4,17.5,5.6,24
		c10.1,8,26.7,11.9,28.7,18.4c1.3,3.5-0.3,6.9-2.6,9.3c-9,8.3-23.3,3.1-32.6-1v9c10.1,4.5,22.8,5.7,34.1,3.2
		c7.7-1.7,16.4-8.5,17.8-17c1.4-8.3-0.3-13.7-5.8-18.3c-8.4-7.2-18.5-9.5-25.7-14.4c-5-3.9-4.3-8.9-1.7-11.6
		C498.1,98.4,510.6,101.6,513.6,102.2z"/>
	<path class="st0" d="M666.2,149.2c-4.8,0-8.6,3.8-8.6,8.6c0,4.8,3.8,8.6,8.6,8.6c4.8,0,8.6-3.8,8.6-8.6
		C674.9,153,671,149.2,666.2,149.2z M666.2,165.6c-4.3,0-7.8-3.5-7.8-7.8c0-4.3,3.5-7.7,7.8-7.7c4.3,0,7.7,3.5,7.7,7.7
		C674,162.1,670.5,165.6,666.2,165.6z"/>
	<path class="st0" d="M468,102.1V94h-49.5v72.4H468v-8.2c-9.5,0.2-21.4,1.7-31.2,0.8v-26c7.9-0.4,17.5-0.3,24.9,0.4v-8.6
		c-7.5,1-16.9,0.9-24.9,0.4c0-1.5,0-23.9,0-23.9C446.6,100.2,458.5,101.9,468,102.1z"/>
	<path class="st0" d="M670,160c0.1-1.5-0.7-1.9-1.3-2c0.3-0.1,1.5-0.6,1.5-2.3c0-1.5-1-2.4-2.9-2.4h-4.4v9.1h1.6v-3.7h2.3
		c1.5,0,1.8,0.8,1.8,2.4c0,0.4,0,0.9,0.2,1.3h1.7C670.1,162,670,161.1,670,160z M667.1,157.4h-2.6v-2.8h2.6c0.7,0,1.5,0.2,1.6,1.2
		c0,0,0,0.1,0,0.2v0.1C668.7,156.9,668.1,157.4,667.1,157.4z"/>
	<path class="st0" d="M569.8,102.2c3.7,1.1,5.7,2.3,9.3,3.8V97c-15-4.4-39-8.5-48.5,6.6c-3.5,6.2-4.4,17.5,5.6,24
		c10.1,8,26.7,11.9,28.7,18.4c1.3,3.5-0.2,6.9-2.7,9.3c-8.9,8.3-23.3,3.1-32.6-1l-0.1,9c10.1,4.5,22.8,5.7,34.1,3.2
		c7.8-1.7,16.4-8.5,17.9-17c1.4-8.3-0.4-13.7-5.9-18.3c-8.3-7.2-18.5-9.5-25.6-14.4c-5.1-3.9-4.3-8.9-1.8-11.6
		C554.2,98.4,566.8,101.6,569.8,102.2z"/>
	<path class="st0" d="M148.1,161.7c-7-8-23.8-30.7-23.8-30.7c-8.7-11.2-20.2-29.7-31.7-39v74.2h10.2v-37.4
		c7.2,9.2,15.6,20.9,21.9,28.3c2.8,3.3,10,11.1,12,12.8c13.2,12.8,37.3,18.6,57.5,11.5v-0.7c-6.9,1.5-15.9,0.9-24.7-2.6
		C162.9,175.7,153.5,168.4,148.1,161.7z"/>
	<path class="st0" d="M152.5,131.2c-7.2-9.2-15.6-20.9-21.9-28.3c-2.8-3.3-10-11.1-12-12.8c-13.2-12.8-37.3-18.6-57.5-11.5v0.7
		C68,77.9,77,78.5,85.8,82c6.6,2.4,16,9.7,21.4,16.4c7,8,23.8,30.7,23.8,30.7c8.7,11.2,20.2,29.7,31.7,39V93.9h-10.2V131.2z"/>
	<path class="st0" d="M222.5,102.1l0.1-8.1h-49.5v72.4h49.5l-0.1-8.1c-9.5,0.2-21.4,1.7-31.2,0.8v-26c7.9-0.4,17.5-0.3,24.9,0.4
		v-8.6c-7.5,1-16.9,0.9-24.9,0.4v-23.9C201.1,100.2,213,101.9,222.5,102.1z"/>
	<path class="st0" d="M342.6,107.4c-3-8.8-9.6-13.4-19.2-13.4h-36.2v72.4h18.3v-26.6c-0.1,0,26.1,1.4,33.5-8.3
		C344.5,125.2,344.8,115.1,342.6,107.4z M325.4,126.5c-4.3,5.1-13.8,5-20.1,4.6l0.1-29c0,0,16.3-2.3,20.6,5.1
		C328.5,111.6,329.1,121.6,325.4,126.5z"/>
	<path class="st0" d="M267.9,102.2c3.7,1.1,5.7,2.3,9.2,3.8V97c-15-4.4-39-8.5-48.5,6.6c-3.5,6.2-4.4,17.5,5.6,24
		c10.1,8,26.7,11.9,28.7,18.4c1.3,3.5-0.3,6.9-2.6,9.3c-9,8.3-23.3,3.1-32.6-1v9c10.1,4.5,22.8,5.7,34.1,3.2
		c7.7-1.7,16.4-8.5,17.8-17c1.4-8.3-0.3-13.7-5.8-18.3c-8.4-7.2-18.5-9.5-25.7-14.4c-5-3.9-4.3-8.9-1.7-11.6
		C252.4,98.4,265,101.6,267.9,102.2z"/>
	<path class="st0" d="M410.6,163c-0.1-0.1-0.1-0.3-0.2-0.4l-2.2-4.3c-4.8-9-8.7-16.5-12.9-26.2c0.4-0.3,0.3-0.2,1.6-0.8
		c6.7-3.2,11.1-9,11-19c-0.3-12.3-11.5-18.4-21.3-18.3h-36.7v72.4h18.4v-29.9h10.5c3.5,5.8,10.6,22.4,11.7,25l2.2,4.9h19.7
		L410.6,163z M387.7,123.7c-4.3,5.2-13.3,4.8-19.5,4.8V102c0,0,15.8-2.4,20.1,5.2c0.1,0.1,0.1,0.3,0.2,0.4c1.7,3.6,2.1,9.5,0.5,13.8
		C388.7,122.2,388.2,123,387.7,123.7z"/>
</g>
</svg>
