<?xml version="1.0" encoding="utf-8"?>
<!-- Generator: Adobe Illustrator 22.0.1, SVG Export Plug-In . SVG Version: 6.00 Build 0)  -->
<svg version="1.1" baseProfile="tiny" id="Layer_1" xmlns="http://www.w3.org/2000/svg" xmlns:xlink="http://www.w3.org/1999/xlink"
	 x="0px" y="0px" viewBox="0 0 353 95" xml:space="preserve">
<g>
	<path fill="none" stroke="#FFFFFF" stroke-width="2" stroke-miterlimit="10" d="M297.5,77.6h-242c-1.6,0-3-1.3-3-3V20.4
		c0-1.6,1.4-3,3-3h242c1.6,0,3,1.4,3,3v54.2C300.5,76.3,299.1,77.6,297.5,77.6z"/>
	<g>
		<path fill="#FFFFFF" d="M106.9,52.2c0,5.7-5.7,6.2-9,6.2h-6.9V36.5h5.6c4.3,0,9,0.5,9,6c0,2.5-1.4,3.8-2.7,4.3
			C104.7,47.2,106.9,48.5,106.9,52.2z M96.6,39.7h-1.7v6h1.7c2.6,0,5.2-0.2,5.2-3C101.8,39.9,99.2,39.7,96.6,39.7z M103,52
			c0-2.8-2.4-3.1-5-3.1h-3.1v6.3h3C100.6,55.2,103,54.8,103,52z"/>
		<path fill="#FFFFFF" d="M116.1,49.6V36.5h3.8v12.3c0,4,0.9,6.5,4.8,6.5c3.8,0,4.9-2.4,4.9-6.5V36.5h3.8v13c0,6.6-3,9.2-8.7,9.2
			C119.1,58.8,116.1,56.1,116.1,49.6z"/>
		<path fill="#FFFFFF" d="M149.6,49.8l-7.8-13.2h4.2l5.6,9.9l5.6-9.9h4.1l-7.9,13.2v8.7h-3.8V49.8z"/>
		<path fill="#FFFFFF" d="M184.8,44.5v14H181V36.2h0.3l14.4,14.3v-14h3.7v22.3h-0.3L184.8,44.5z"/>
		<path fill="#FFFFFF" d="M209.4,47.5c0-6.6,4.3-11.3,11.2-11.3c6.9,0,11,4.7,11,11.2c0,6.5-4.2,11.4-11.2,11.4
			C213.5,58.8,209.4,54,209.4,47.5z M227.7,47.5c0-4.6-3-7.8-7.2-7.8c-4.2,0-7.2,3.1-7.2,7.7c0,4.6,3,7.8,7.3,7.8
			C224.8,55.2,227.7,52,227.7,47.5z"/>
		<path fill="#FFFFFF" d="M238.3,36.5h4.2l5.4,13.6l6-13.6h0.3l6,13.6l5.5-13.6h4.1l-9.3,22.2h-0.3l-6.2-13.9L248,58.8h-0.3
			L238.3,36.5z"/>
	</g>
</g>
</svg>
